<?xml version="1.0" encoding="iso-8859-1"?>
<!-- Generator: Adobe Illustrator 19.0.0, SVG Export Plug-In . SVG Version: 6.00 Build 0)  -->
<svg version="1.1" id="Capa_1" xmlns="http://www.w3.org/2000/svg" xmlns:xlink="http://www.w3.org/1999/xlink" x="0px" y="0px"
	 viewBox="0 0 512 512" style="enable-background:new 0 0 512 512;" xml:space="preserve">
<path style="fill:#F1EBDE;" d="M508.007,25.066L497.47,14.53L486.935,3.993c-3.939-3.939-9.641-5.113-13.849-2.851l-69.102,37.944
	l21.568,47.363l0,0l47.363,21.568l37.944-69.102C513.12,34.707,511.946,29.006,508.007,25.066z"/>
<g>
	<path style="fill:#D4CFC2;" d="M451.76,98.384l21.154,9.633l37.944-69.102c2.262-4.207,1.089-9.909-2.851-13.849l-10.321-10.321
		L451.76,98.384z"/>
	<path style="fill:#D4CFC2;" d="M474.637,109.74l-36.189-36.189l-10.339-10.339L402.26,37.363
		c-13.269-13.269-34.983-13.269-48.252,0l-27.573,27.573l25.849,25.849l8.616,8.616l25.849,25.849l60.315,60.315l27.573-27.573
		C487.906,144.723,487.906,123.01,474.637,109.74z"/>
</g>
<path style="fill:#F3D035;" d="M472.919,202.792L172.634,503.077c-11.897,11.897-31.185,11.897-43.082,0L8.922,382.448
	c-11.897-11.897-11.897-31.185,0-43.082L309.208,39.081c11.897-11.897,31.185-11.897,43.082,0L472.919,159.71
	C484.816,171.606,484.816,190.896,472.919,202.792z"/>
<path style="fill:#EFA628;" d="M472.919,159.71l-53.905-53.905c11.897,11.897,11.897,31.185,0,43.082L136.629,431.272
	c-0.196,0.196-0.389,0.389-0.581,0.581c-12.413,12.414-32.533,12.409-44.947-0.005L4.396,345.141
	c-7.099,11.718-5.594,27.185,4.527,37.306l76.449,76.449l0,0l44.18,44.18c11.897,11.897,31.185,11.897,43.082,0l300.285-300.285
	C484.816,190.896,484.816,171.606,472.919,159.71z"/>
<path style="fill:#D4CFC2;" d="M348.716,256c0-11.009-1.939-21.56-5.46-31.356l-118.386,5.066l-0.226,113.546
	c9.796,3.521,20.347,5.46,31.356,5.46C307.206,348.716,348.716,307.206,348.716,256z"/>
<path style="fill:#F1EBDE;" d="M342.114,221.585c-13.666-34.165-47.07-58.301-86.114-58.301c-51.206,0-92.716,41.51-92.716,92.716
	c0,39.044,24.136,72.447,58.3,86.114c1.009,0.404,2.035,0.774,3.061,1.142l118.612-118.612
	C342.888,223.618,342.518,222.593,342.114,221.585z"/>
<path style="fill:#EFA628;" d="M256,307.434c-1.977,0-3.955-0.754-5.463-2.262c-3.017-3.018-3.017-7.91,0-10.927l30.517-30.518H256
	c-4.267,0-7.726-3.458-7.726-7.726v-25.054l-30.517,30.518c-3.017,3.016-7.91,3.016-10.926,0c-3.017-3.018-3.017-7.91,0-10.927
	l43.706-43.708c2.21-2.21,5.533-2.871,8.42-1.674c2.888,1.195,4.77,4.014,4.77,7.138v35.98h35.98c3.126,0,5.942,1.882,7.138,4.77
	c1.196,2.888,0.535,6.21-1.675,8.421l-43.706,43.707C259.955,306.679,257.977,307.434,256,307.434z"/>
<g>
</g>
<g>
</g>
<g>
</g>
<g>
</g>
<g>
</g>
<g>
</g>
<g>
</g>
<g>
</g>
<g>
</g>
<g>
</g>
<g>
</g>
<g>
</g>
<g>
</g>
<g>
</g>
<g>
</g>
</svg>
