<svg id="Capa_1" enable-background="new 0 0 512 512" height="512" viewBox="0 0 512 512" width="512" xmlns="http://www.w3.org/2000/svg"><g><g><path d="m237.078 55.999c-45.305 21.14-76.078 62.472-76.078 110.001 0 69.036 64.919 125 145 125s145-55.964 145-125c0-47.529-30.773-88.861-76.078-110.001z" fill="#ffdd54"/><g><path d="m374.922 55.999h-68.922v235.001c80.081 0 145-55.964 145-125 0-47.529-30.773-88.861-76.078-110.001z" fill="#ffb454"/></g><path d="m306 126c38.108 0 69-29.997 69-67 0-1.007-.033-2.006-.078-3.001-20.5-9.566-43.975-14.999-68.922-14.999s-48.422 5.433-68.922 14.999c-.045.995-.078 1.994-.078 3.001 0 37.003 30.892 67 69 67z" fill="#fff48b"/><g><path d="m374.922 55.999c-20.5-9.566-43.975-14.999-68.922-14.999v85c38.108 0 69-29.997 69-67 0-1.007-.033-2.006-.078-3.001z" fill="#ffdd54"/></g></g><g><path d="m76.078 175.999c-45.305 21.14-76.078 62.472-76.078 110.001 0 69.036 64.919 125 145 125s145-55.964 145-125c0-47.529-30.773-88.861-76.078-110.001z" fill="#ffdd54"/><g><path d="m213.922 175.999h-68.922v235.001c80.081 0 145-55.964 145-125 0-47.529-30.773-88.861-76.078-110.001z" fill="#ffb454"/></g><path d="m145 246c38.108 0 69-29.997 69-67 0-1.007-.033-2.006-.078-3.001-20.5-9.566-43.975-14.999-68.922-14.999s-48.422 5.433-68.922 14.999c-.045.995-.078 1.994-.078 3.001 0 37.003 30.892 67 69 67z" fill="#fff48b"/><g><path d="m213.922 175.999c-20.5-9.566-43.975-14.999-68.922-14.999v85c38.108 0 69-29.997 69-67 0-1.007-.033-2.006-.078-3.001z" fill="#ffdd54"/></g></g><g><path d="m298.078 235.999c-45.305 21.14-76.078 62.472-76.078 110.001 0 69.036 64.919 125 145 125s145-55.964 145-125c0-47.529-30.773-88.861-76.078-110.001z" fill="#ffdd54"/><g><path d="m435.922 235.999h-68.922v235.001c80.081 0 145-55.964 145-125 0-47.529-30.773-88.861-76.078-110.001z" fill="#ffb454"/></g><path d="m367 306c38.108 0 69-29.997 69-67 0-1.007-.033-2.006-.078-3.001-20.5-9.566-43.975-14.999-68.922-14.999s-48.422 5.433-68.922 14.999c-.045.995-.078 1.994-.078 3.001 0 37.003 30.892 67 69 67z" fill="#fff48b"/><g><path d="m435.922 235.999c-20.5-9.566-43.975-14.999-68.922-14.999v85c38.108 0 69-29.997 69-67 0-1.007-.033-2.006-.078-3.001z" fill="#ffdd54"/></g></g></g></svg>